{
    "asset" : {
        "generator" : "Khronos glTF Blender I/O v1.7.33",
        "version" : "2.0"
    },
    "scene" : 0,
    "scenes" : [
        {
            "name" : "Scene",
            "nodes" : [
                0
            ]
        }
    ],
    "nodes" : [
        {
            "mesh" : 0,
            "name" : "duck"
        }
    ],
    "materials" : [
        {
            "doubleSided" : true,
            "name" : "duck yellow",
            "pbrMetallicRoughness" : {
                "baseColorFactor" : [
                    1,
                    0.7758223414421082,
                    0.0015176907181739807,
                    1
                ],
                "metallicFactor" : 0,
                "roughnessFactor" : 0.20000000298023224
            }
        },
        {
            "doubleSided" : true,
            "name" : "duck red lip",
            "pbrMetallicRoughness" : {
                "baseColorFactor" : [
                    0.658375084400177,
                    0.06480327248573303,
                    0.01850022003054619,
                    1
                ],
                "metallicFactor" : 0,
                "roughnessFactor" : 0.20000000298023224
            }
        },
        {
            "doubleSided" : true,
            "name" : "duck blackeye",
            "pbrMetallicRoughness" : {
                "baseColorFactor" : [
                    0.009721221402287483,
                    0.009721221402287483,
                    0.010960093699395657,
                    1
                ],
                "metallicFactor" : 0,
                "roughnessFactor" : 0
            }
        }
    ],
    "meshes" : [
        {
            "name" : "Sphere.001",
            "primitives" : [
                {
                    "attributes" : {
                        "POSITION" : 0,
                        "NORMAL" : 1,
                        "TEXCOORD_0" : 2
                    },
                    "indices" : 3,
                    "material" : 0
                },
                {
                    "attributes" : {
                        "POSITION" : 4,
                        "NORMAL" : 5,
                        "TEXCOORD_0" : 6
                    },
                    "indices" : 7,
                    "material" : 1
                },
                {
                    "attributes" : {
                        "POSITION" : 8,
                        "NORMAL" : 9,
                        "TEXCOORD_0" : 10
                    },
                    "indices" : 11,
                    "material" : 2
                }
            ]
        }
    ],
    "accessors" : [
        {
            "bufferView" : 0,
            "componentType" : 5126,
            "count" : 1652,
            "max" : [
                0.261677086353302,
                0.639121413230896,
                0.30332374572753906
            ],
            "min" : [
                -0.2616771459579468,
                0,
                -0.30332374572753906
            ],
            "type" : "VEC3"
        },
        {
            "bufferView" : 1,
            "componentType" : 5126,
            "count" : 1652,
            "type" : "VEC3"
        },
        {
            "bufferView" : 2,
            "componentType" : 5126,
            "count" : 1652,
            "type" : "VEC2"
        },
        {
            "bufferView" : 3,
            "componentType" : 5123,
            "count" : 3384,
            "type" : "SCALAR"
        },
        {
            "bufferView" : 4,
            "componentType" : 5126,
            "count" : 364,
            "max" : [
                0.21635162830352783,
                0.5234757661819458,
                0.2971835136413574
            ],
            "min" : [
                0.05700719356536865,
                0.3721825182437897,
                0.14435610175132751
            ],
            "type" : "VEC3"
        },
        {
            "bufferView" : 5,
            "componentType" : 5126,
            "count" : 364,
            "type" : "VEC3"
        },
        {
            "bufferView" : 6,
            "componentType" : 5126,
            "count" : 364,
            "type" : "VEC2"
        },
        {
            "bufferView" : 7,
            "componentType" : 5123,
            "count" : 630,
            "type" : "SCALAR"
        },
        {
            "bufferView" : 8,
            "componentType" : 5126,
            "count" : 144,
            "max" : [
                0.21554160118103027,
                0.5764046907424927,
                0.25515860319137573
            ],
            "min" : [
                0.03768420219421387,
                0.5147703886032104,
                0.11129683256149292
            ],
            "type" : "VEC3"
        },
        {
            "bufferView" : 9,
            "componentType" : 5126,
            "count" : 144,
            "type" : "VEC3"
        },
        {
            "bufferView" : 10,
            "componentType" : 5126,
            "count" : 144,
            "type" : "VEC2"
        },
        {
            "bufferView" : 11,
            "componentType" : 5123,
            "count" : 264,
            "type" : "SCALAR"
        }
    ],
    "bufferViews" : [
        {
            "buffer" : 0,
            "byteLength" : 19824,
            "byteOffset" : 0
        },
        {
            "buffer" : 0,
            "byteLength" : 19824,
            "byteOffset" : 19824
        },
        {
            "buffer" : 0,
            "byteLength" : 13216,
            "byteOffset" : 39648
        },
        {
            "buffer" : 0,
            "byteLength" : 6768,
            "byteOffset" : 52864
        },
        {
            "buffer" : 0,
            "byteLength" : 4368,
            "byteOffset" : 59632
        },
        {
            "buffer" : 0,
            "byteLength" : 4368,
            "byteOffset" : 64000
        },
        {
            "buffer" : 0,
            "byteLength" : 2912,
            "byteOffset" : 68368
        },
        {
            "buffer" : 0,
            "byteLength" : 1260,
            "byteOffset" : 71280
        },
        {
            "buffer" : 0,
            "byteLength" : 1728,
            "byteOffset" : 72540
        },
        {
            "buffer" : 0,
            "byteLength" : 1728,
            "byteOffset" : 74268
        },
        {
            "buffer" : 0,
            "byteLength" : 1152,
            "byteOffset" : 75996
        },
        {
            "buffer" : 0,
            "byteLength" : 528,
            "byteOffset" : 77148
        }
    ],
    "buffers" : [
        {
            "byteLength" : 77676,
            "uri" : "data:application/octet-stream;base64,"
        }
    ]
}
