{
    "asset" : {
        "generator" : "Khronos glTF Blender I/O v1.7.33",
        "version" : "2.0"
    },
    "scene" : 0,
    "scenes" : [
        {
            "name" : "Scene",
            "nodes" : [
                0
            ]
        }
    ],
    "nodes" : [
        {
            "mesh" : 0,
            "name" : "fire extinguisher"
        }
    ],
    "materials" : [
        {
            "doubleSided" : true,
            "name" : "red",
            "pbrMetallicRoughness" : {
                "baseColorFactor" : [
                    0.7454043626785278,
                    0,
                    0.007705332711338997,
                    1
                ],
                "metallicFactor" : 0,
                "roughnessFactor" : 0.20000000298023224
            }
        },
        {
            "doubleSided" : true,
            "name" : "text",
            "pbrMetallicRoughness" : {
                "baseColorTexture" : {
                    "index" : 0
                },
                "metallicFactor" : 0,
                "metallicRoughnessTexture" : {
                    "index" : 1
                }
            }
        },
        {
            "doubleSided" : true,
            "name" : "black.001",
            "pbrMetallicRoughness" : {
                "baseColorFactor" : [
                    0,
                    0,
                    0,
                    1
                ],
                "metallicFactor" : 0,
                "roughnessFactor" : 0.20000000298023224
            }
        },
        {
            "doubleSided" : true,
            "name" : "metal",
            "pbrMetallicRoughness" : {
                "baseColorFactor" : [
                    0.800000011920929,
                    0.800000011920929,
                    0.800000011920929,
                    1
                ],
                "roughnessFactor" : 0.20000000298023224
            }
        }
    ],
    "meshes" : [
        {
            "name" : "Cylinder.002",
            "primitives" : [
                {
                    "attributes" : {
                        "POSITION" : 0,
                        "NORMAL" : 1,
                        "TEXCOORD_0" : 2
                    },
                    "indices" : 3,
                    "material" : 0
                },
                {
                    "attributes" : {
                        "POSITION" : 4,
                        "NORMAL" : 5,
                        "TEXCOORD_0" : 6
                    },
                    "indices" : 7,
                    "material" : 1
                },
                {
                    "attributes" : {
                        "POSITION" : 8,
                        "NORMAL" : 9,
                        "TEXCOORD_0" : 10
                    },
                    "indices" : 11,
                    "material" : 2
                },
                {
                    "attributes" : {
                        "POSITION" : 12,
                        "NORMAL" : 13,
                        "TEXCOORD_0" : 14
                    },
                    "indices" : 15,
                    "material" : 3
                }
            ]
        }
    ],
    "textures" : [
        {
            "sampler" : 0,
            "source" : 0
        },
        {
            "sampler" : 0,
            "source" : 1
        }
    ],
    "images" : [
        {
            "bufferView" : 8,
            "mimeType" : "image/jpeg",
            "name" : "fire extinguisher"
        },
        {
            "bufferView" : 9,
            "mimeType" : "image/png",
            "name" : "fire extinguisher"
        }
    ],
    "accessors" : [
        {
            "bufferView" : 0,
            "componentType" : 5126,
            "count" : 237,
            "max" : [
                0.12059211730957031,
                0.6840611100196838,
                0.11895214021205902
            ],
            "min" : [
                -0.11021387577056885,
                0,
                -0.11168086528778076
            ],
            "type" : "VEC3"
        },
        {
            "bufferView" : 1,
            "componentType" : 5126,
            "count" : 237,
            "type" : "VEC3"
        },
        {
            "bufferView" : 2,
            "componentType" : 5126,
            "count" : 237,
            "type" : "VEC2"
        },
        {
            "bufferView" : 3,
            "componentType" : 5123,
            "count" : 435,
            "type" : "SCALAR"
        },
        {
            "bufferView" : 4,
            "componentType" : 5126,
            "count" : 40,
            "max" : [
                0.11978304386138916,
                0.7414609789848328,
                0.11891761422157288
            ],
            "min" : [
                -0.10918033123016357,
                0.3020484447479248,
                -0.11056779325008392
            ],
            "type" : "VEC3"
        },
        {
            "bufferView" : 5,
            "componentType" : 5126,
            "count" : 40,
            "type" : "VEC3"
        },
        {
            "bufferView" : 6,
            "componentType" : 5126,
            "count" : 40,
            "type" : "VEC2"
        },
        {
            "bufferView" : 7,
            "componentType" : 5123,
            "count" : 66,
            "type" : "SCALAR"
        },
        {
            "bufferView" : 10,
            "componentType" : 5126,
            "count" : 255,
            "max" : [
                0.12098383903503418,
                0.7349076867103577,
                0.13165394961833954
            ],
            "min" : [
                -0.12098383903503418,
                0.08367389440536499,
                -0.23832161724567413
            ],
            "type" : "VEC3"
        },
        {
            "bufferView" : 11,
            "componentType" : 5126,
            "count" : 255,
            "type" : "VEC3"
        },
        {
            "bufferView" : 12,
            "componentType" : 5126,
            "count" : 255,
            "type" : "VEC2"
        },
        {
            "bufferView" : 13,
            "componentType" : 5123,
            "count" : 486,
            "type" : "SCALAR"
        },
        {
            "bufferView" : 14,
            "componentType" : 5126,
            "count" : 533,
            "max" : [
                0.049543142318725586,
                0.8428179025650024,
                0.23832161724567413
            ],
            "min" : [
                -0.041277170181274414,
                0.0870661735534668,
                -0.20641694962978363
            ],
            "type" : "VEC3"
        },
        {
            "bufferView" : 15,
            "componentType" : 5126,
            "count" : 533,
            "type" : "VEC3"
        },
        {
            "bufferView" : 16,
            "componentType" : 5126,
            "count" : 533,
            "type" : "VEC2"
        },
        {
            "bufferView" : 17,
            "componentType" : 5123,
            "count" : 1161,
            "type" : "SCALAR"
        }
    ],
    "bufferViews" : [
        {
            "buffer" : 0,
            "byteLength" : 2844,
            "byteOffset" : 0
        },
        {
            "buffer" : 0,
            "byteLength" : 2844,
            "byteOffset" : 2844
        },
        {
            "buffer" : 0,
            "byteLength" : 1896,
            "byteOffset" : 5688
        },
        {
            "buffer" : 0,
            "byteLength" : 870,
            "byteOffset" : 7584
        },
        {
            "buffer" : 0,
            "byteLength" : 480,
            "byteOffset" : 8456
        },
        {
            "buffer" : 0,
            "byteLength" : 480,
            "byteOffset" : 8936
        },
        {
            "buffer" : 0,
            "byteLength" : 320,
            "byteOffset" : 9416
        },
        {
            "buffer" : 0,
            "byteLength" : 132,
            "byteOffset" : 9736
        },
        {
            "buffer" : 0,
            "byteLength" : 60245,
            "byteOffset" : 9868
        },
        {
            "buffer" : 0,
            "byteLength" : 290233,
            "byteOffset" : 70116
        },
        {
            "buffer" : 0,
            "byteLength" : 3060,
            "byteOffset" : 360352
        },
        {
            "buffer" : 0,
            "byteLength" : 3060,
            "byteOffset" : 363412
        },
        {
            "buffer" : 0,
            "byteLength" : 2040,
            "byteOffset" : 366472
        },
        {
            "buffer" : 0,
            "byteLength" : 972,
            "byteOffset" : 368512
        },
        {
            "buffer" : 0,
            "byteLength" : 6396,
            "byteOffset" : 369484
        },
        {
            "buffer" : 0,
            "byteLength" : 6396,
            "byteOffset" : 375880
        },
        {
            "buffer" : 0,
            "byteLength" : 4264,
            "byteOffset" : 382276
        },
        {
            "buffer" : 0,
            "byteLength" : 2322,
            "byteOffset" : 386540
        }
    ],
    "samplers" : [
        {
            "magFilter" : 9729,
            "minFilter" : 9987
        }
    ],
    "buffers" : [
        {
            "byteLength" : 388864,
            "uri" : "data:application/octet-stream;base64,"
        }
    ]
}
