{
    "asset" : {
        "generator" : "Khronos glTF Blender I/O v1.7.33",
        "version" : "2.0"
    },
    "scene" : 0,
    "scenes" : [
        {
            "name" : "Scene",
            "nodes" : [
                0
            ]
        }
    ],
    "nodes" : [
        {
            "mesh" : 0,
            "name" : "telephone"
        }
    ],
    "materials" : [
        {
            "doubleSided" : true,
            "name" : "telephone",
            "pbrMetallicRoughness" : {
                "baseColorFactor" : [
                    0.8000000715255737,
                    0,
                    0.000292519893264398,
                    1
                ],
                "metallicFactor" : 0,
                "roughnessFactor" : 0.26106196641921997
            }
        },
        {
            "doubleSided" : true,
            "name" : "telephone numbers",
            "pbrMetallicRoughness" : {
                "metallicFactor" : 0,
                "roughnessFactor" : 0.5
            }
        }
    ],
    "meshes" : [
        {
            "name" : "Circle.005",
            "primitives" : [
                {
                    "attributes" : {
                        "POSITION" : 0,
                        "NORMAL" : 1,
                        "TEXCOORD_0" : 2
                    },
                    "indices" : 3,
                    "material" : 0
                },
                {
                    "attributes" : {
                        "POSITION" : 4,
                        "NORMAL" : 5,
                        "TEXCOORD_0" : 6
                    },
                    "indices" : 7,
                    "material" : 1
                }
            ]
        }
    ],
    "accessors" : [
        {
            "bufferView" : 0,
            "componentType" : 5126,
            "count" : 4610,
            "max" : [
                0.16777634620666504,
                0.3145674765110016,
                0.1402667909860611
            ],
            "min" : [
                -0.16777610778808594,
                0,
                -0.1402667909860611
            ],
            "type" : "VEC3"
        },
        {
            "bufferView" : 1,
            "componentType" : 5126,
            "count" : 4610,
            "type" : "VEC3"
        },
        {
            "bufferView" : 2,
            "componentType" : 5126,
            "count" : 4610,
            "type" : "VEC2"
        },
        {
            "bufferView" : 3,
            "componentType" : 5123,
            "count" : 9486,
            "type" : "SCALAR"
        },
        {
            "bufferView" : 4,
            "componentType" : 5126,
            "count" : 97,
            "max" : [
                0.043042898178100586,
                0.20043285191059113,
                0.10343626886606216
            ],
            "min" : [
                -0.05401945114135742,
                0.1105576679110527,
                0.02343992330133915
            ],
            "type" : "VEC3"
        },
        {
            "bufferView" : 5,
            "componentType" : 5126,
            "count" : 97,
            "type" : "VEC3"
        },
        {
            "bufferView" : 6,
            "componentType" : 5126,
            "count" : 97,
            "type" : "VEC2"
        },
        {
            "bufferView" : 7,
            "componentType" : 5123,
            "count" : 231,
            "type" : "SCALAR"
        }
    ],
    "bufferViews" : [
        {
            "buffer" : 0,
            "byteLength" : 55320,
            "byteOffset" : 0
        },
        {
            "buffer" : 0,
            "byteLength" : 55320,
            "byteOffset" : 55320
        },
        {
            "buffer" : 0,
            "byteLength" : 36880,
            "byteOffset" : 110640
        },
        {
            "buffer" : 0,
            "byteLength" : 18972,
            "byteOffset" : 147520
        },
        {
            "buffer" : 0,
            "byteLength" : 1164,
            "byteOffset" : 166492
        },
        {
            "buffer" : 0,
            "byteLength" : 1164,
            "byteOffset" : 167656
        },
        {
            "buffer" : 0,
            "byteLength" : 776,
            "byteOffset" : 168820
        },
        {
            "buffer" : 0,
            "byteLength" : 462,
            "byteOffset" : 169596
        }
    ],
    "buffers" : [
        {
            "byteLength" : 170060,
            "uri" : "data:application/octet-stream;base64,"
        }
    ]
}
